<svg xmlns="http://www.w3.org/2000/svg" viewBox="0 0 42 34">
<metadata>image/svg+xml</metadata>
<g>
<title>Rox</title>
<rect x="-1" y="-1" width="42" height="34"/>
</g>
  <g>
    <polygon points="2.5 14.97 22.08 33.5 34.68 33.5 15.11 14.97 2.5 14.97" style="fill: #fff"/>
    <path d="M2.5.5l9.39,8.88H23.44a3.18,3.18,0,0,1,2.36,1,2.35,2.35,0,0,1,0,3.41A3.35,3.35,0,0,1,23.2,15H17.52l8.85,8.38s6.44-1.53,8.31-7.11a11.91,11.91,0,0,0,0-8.63c-1.22-2.79-3.28-4.5-6.54-6.22A7.69,7.69,0,0,0,24.55.5Z" style="fill: #fff"/>
  </g>
  <g>
    <ellipse cx="37" cy="28.6" rx="3.5" ry="3.33" style="fill: none;stroke: #fff;stroke-miterlimit: 10;stroke-width: 0.5px"/>
    <text transform="translate(34.9 30.23) scale(1.15 1)" style="font-size: 7.421019554138184px;fill: #fff;font-family: Linotte-SemiBold, Linotte;font-weight: 600">x</text>
  </g>
</svg>
