<svg xmlns="http://www.w3.org/2000/svg" width="38.25" height="33" viewBox="0 0 38.25 33" preserveAspectRatio="xMidYMid meet">
  <title>Rox</title>
  <g id="f328db9f-2b4d-4777-aa60-b2c40b0c52e0" data-name="Layer 1">
    <g>
      <polygon points="0 14.469 19.578 33 32.183 33 12.605 14.469 0 14.469" style="fill: #fff"/>
      <path d="M0,0,9.3867,8.8846H20.9351A3.1816,3.1816,0,0,1,23.3049,9.9a2.3593,2.3593,0,0,1-.03,3.4133,3.3554,3.3554,0,0,1-2.5734,1.1558H15.0187l8.85,8.377s6.4366-1.5231,8.314-7.1077a11.9693,11.9693,0,0,0,0-8.6308C30.9577,4.3243,28.8977,2.6132,25.637.8851A7.6641,7.6641,0,0,0,22.0539,0Z" style="fill: #fff"/>
    </g>
    <g>
      <ellipse cx="34.5" cy="28.0971" rx="3.5" ry="3.333" style="fill: none;stroke: #fff;stroke-miterlimit: 10;stroke-width: 0.5px"/>
      <path d="M33.5918,28.4131l.374-.3926-.1445-.1406c-.2715-.2676-.6621-.6377-.9258-.92a.4044.4044,0,0,1-.1533-.2969c0-.1777.2549-.3408.459-.3486a.4727.4727,0,0,1,.374.1709c.5273.5712.7568.8154.9346,1.0087.1787-.1855.4765-.5117.8584-.9345.1787-.1856.289-.252.4423-.252.2208,0,.4844.17.4844.3779,0,.2-.2129.3487-.4756.6006l-.748.7491,1.0625,1.0459c.11.1035.1953.1855.1953.3261,0,.1778-.2383.3633-.4766.3633a.5545.5545,0,0,1-.4248-.2295c-.2041-.2226-.6963-.7568-.9-.98-.3916.4082-.6972.749-.9091.9864a.5158.5158,0,0,1-.4258.2226c-.2373,0-.4756-.1777-.4756-.3711a.3652.3652,0,0,1,.1357-.2812Z" style="fill: #fff"/>
    </g>
  </g>
</svg>
