<?xml version="1.0" encoding="utf-8"?>
<svg version="1.1" id="Layer_1" xmlns="http://www.w3.org/2000/svg" xmlns:xlink="http://www.w3.org/1999/xlink" x="0px" y="0px"
	 width="42vw" height="34vh" viewBox="0 0 42 34" enable-background="new 0 0 42 34" xml:space="preserve">
<g>
	<polygon fill="#FFFFFF" points="2.5,14.969 22.078,33.5 34.683,33.5 15.105,14.969 	"/>
	<path fill="#FFFFFF" d="M2.5,0.5l9.387,8.885h11.548c0.908,0,1.782,0.361,2.37,1.015c0.698,0.777,1.187,1.961-0.03,3.413
		c-0.62,0.739-1.576,1.156-2.573,1.156l-5.682,0l8.85,8.377c0,0,6.437-1.523,8.314-7.108c0.536-1.269,1.533-5.147,0-8.631
		c-1.225-2.783-3.285-4.494-6.546-6.223C27.043,0.805,25.808,0.5,24.554,0.5L2.5,0.5z"/>
</g>
<g>
	<ellipse fill="none" stroke="#FFFFFF" stroke-width="0.5" stroke-miterlimit="10" cx="37" cy="28.597" rx="3.5" ry="3.333"/>
	<text transform="matrix(1.1457 0 0 1 34.9023 30.2334)" fill="#FFFFFF" font-family="'Linotte-SemiBold'" font-size="7.421px">x</text>
</g>
</svg>
