<svg xmlns="http://www.w3.org/2000/svg" viewBox="0 0 45 45">
  <defs>
    <style>
      .a, .b, .c {
        fill: #fff;
        stroke: #fff;
        stroke-miterlimit: 10;
      }

      .b {
        stroke-width: 0.5px;
      }

      .c {
        font-size: 5.57px;
        font-family: Linotte-SemiBold, Linotte;
        font-weight: 600;
      }
    </style>
  </defs>
  <title>Rox</title>
  <g>
    <polygon class="a" points="2.5 20.14 26.36 44 41.73 44 17.86 20.14 2.5 20.14"/>
    <path class="a" d="M2.5,1.5,13.94,12.94H28a3.8,3.8,0,0,1,2.89,1.31,3.16,3.16,0,0,1,0,4.4,4,4,0,0,1-3.14,1.48H20.81L31.6,30.92s7.84-2,10.13-9.15a16.26,16.26,0,0,0,0-11.12c-1.49-3.58-4-5.78-8-8A8.9,8.9,0,0,0,29.38,1.5Z"/>
  </g>
  <g>
    <circle class="b" cx="41" cy="37.5" r="2.5"/>
    <text class="c" transform="translate(39.5 38.72) scale(1.09 1)">x</text>
  </g>
</svg>
