<?xml version="1.0" standalone="no"?>
<!DOCTYPE svg PUBLIC "-//W3C//DTD SVG 20010904//EN"
 "http://www.w3.org/TR/2001/REC-SVG-20010904/DTD/svg10.dtd">
<svg version="1.0" xmlns="http://www.w3.org/2000/svg"
 viewBox="0 0 45.000000 43.000000" preserveAspectRatio="xMidYMid meet">
<g>
<title>Rox</title>
<rect x="-1" y="-1" width="45" height="43" fill="none"/>
</g>
<metadata>
Created by potrace 1.16, written by Peter Selinger 2001-2019
</metadata>
<g>
<title>Rox</title>
<g transform="translate(0.000000,43.000000) scale(0.100000,-0.100000)"
fill="#000000" stroke="none">
<path d="M0 215 l0 -215 225 0 225 0 0 215 0 215 -225 0 -225 0 0 -215z m105
165 c29 -28 35 -30 61 -20 16 6 47 10 69 9 22 -1 50 3 62 9 28 16 85 15 106 0
16 -12 15 -16 -13 -49 -27 -33 -29 -40 -19 -68 6 -18 9 -46 7 -63 -3 -21 2
-43 13 -63 24 -38 24 -67 1 -95 l-17 -21 -38 30 c-33 26 -42 29 -65 20 -15 -6
-42 -9 -62 -8 -21 2 -46 -5 -63 -15 -20 -13 -38 -17 -64 -13 -55 9 -60 21 -29
62 26 34 27 39 17 82 -7 24 -9 53 -6 64 4 10 -1 29 -9 41 -19 27 -21 81 -4
108 16 26 16 26 53 -10z"/>
<path d="M320 367 c-29 -15 -260 -287 -256 -302 1 -5 17 -11 34 -13 24 -2 38
3 57 24 50 54 237 285 234 288 -14 12 -48 14 -69 3z"/>
</g>
</g>
</svg>
