<?xml version="1.0" standalone="no"?>
<!DOCTYPE svg PUBLIC "-//W3C//DTD SVG 20010904//EN"
 "http://www.w3.org/TR/2001/REC-SVG-20010904/DTD/svg10.dtd">
<svg version="1.0" xmlns="http://www.w3.org/2000/svg"
 viewBox="0 0 45.000000 43.000000" preserveAspectRatio="xMidYMid meet">
<g>
<title>Rox</title>
<rect x="-1" y="-1" width="45" height="43" fill="none"/>
</g>
<metadata>
Created by potrace 1.16, written by Peter Selinger 2001-2019
</metadata>
<g>
<title>Rox</title>
<g transform="translate(0.000000,1080.000000) scale(0.100000,-0.100000)"
fill="#000000" stroke="none">
<path d="M0 5405 l0 -5395 5565 0 5565 0 0 5395 0 5395 -5565 0 -5565 0 0
-5395z m2608 4163 c482 -403 884 -738 893 -745 12 -10 53 7 229 95 487 243
948 370 1489 412 483 37 1033 -33 1502 -190 l119 -39 142 143 c152 152 286
258 444 352 236 138 552 249 869 305 175 30 468 37 645 14 505 -64 969 -298
1367 -690 l123 -120 -227 -280 c-182 -225 -1208 -1504 -1246 -1553 -7 -9 11
-56 60 -160 413 -862 494 -1851 228 -2767 -26 -88 -49 -167 -52 -176 -3 -12
29 -45 109 -111 163 -137 283 -267 382 -415 224 -338 375 -718 442 -1113 20
-114 27 -495 11 -618 -61 -490 -308 -984 -699 -1398 -44 -46 -84 -84 -89 -84
-16 0 -611 474 -1533 1218 l-438 354 -177 -85 c-847 -409 -1796 -505 -2689
-272 -72 19 -136 35 -141 35 -4 0 -55 -55 -112 -122 -211 -247 -431 -416 -734
-563 -843 -409 -1693 -360 -2452 144 -158 104 -450 339 -452 363 -2 20 1098
1401 1482 1860 l39 46 -61 109 c-347 624 -520 1323 -497 2018 7 225 9 242 37
445 24 171 58 337 98 479 l29 103 -115 112 c-362 349 -641 853 -737 1326 -86
427 -46 835 124 1265 75 191 243 480 393 680 106 140 292 355 308 355 5 0 404
-330 887 -732z m1060 372 c70 -37 120 -89 154 -159 19 -38 23 -62 23 -146 0
-89 -3 -106 -28 -157 -59 -121 -178 -191 -323 -191 -70 0 -91 4 -147 30 -166
78 -241 248 -188 424 20 63 31 81 84 134 85 85 140 106 267 102 86 -3 101 -6
158 -37z"/>
<path d="M1691 9431 c-260 -506 -329 -1131 -175 -1590 75 -226 201 -428 375
-600 45 -44 85 -81 88 -81 4 0 24 35 45 77 184 373 537 822 886 1129 55 48
100 90 100 94 0 8 -1244 1063 -1259 1068 -5 2 -32 -42 -60 -97z"/>
<path d="M8475 9409 c-456 -44 -887 -249 -1206 -576 -48 -48 -662 -794 -1365
-1658 -1457 -1790 -2648 -3253 -2899 -3560 -869 -1064 -1627 -1998 -1631
-2009 -5 -13 118 -110 206 -163 183 -110 408 -188 630 -217 71 -10 338 -7 420
3 432 57 814 242 1134 551 104 100 131 132 2076 2515 1246 1527 1911 2341
3063 3750 445 545 814 995 819 1001 6 8 -21 31 -84 72 -357 230 -755 330
-1163 291z"/>
<path d="M5310 8784 c-445 -30 -816 -119 -1201 -288 -59 -26 -114 -53 -122
-59 -13 -10 68 -81 494 -437 280 -233 509 -427 509 -430 0 -7 -380 -434 -390
-438 -6 -2 -914 758 -1142 956 -16 13 -26 8 -115 -64 -272 -221 -543 -527
-722 -816 -90 -144 -212 -372 -214 -400 -2 -20 51 -70 303 -289 574 -499 1121
-960 1132 -956 7 2 2601 3057 2613 3076 12 20 -356 100 -575 125 -134 16 -463
27 -570 20z"/>
<path d="M8363 6528 c-230 -290 -745 -944 -783 -996 -21 -28 -22 -34 -9 -46 7
-7 248 -206 534 -441 286 -236 549 -452 585 -482 44 -36 66 -49 71 -40 13 23
58 241 79 382 42 280 42 695 1 976 -38 262 -106 522 -198 754 -30 77 -58 144
-63 148 -4 5 -102 -110 -217 -255z"/>
<path d="M2176 6128 c-88 -386 -100 -877 -30 -1303 47 -292 168 -665 301 -928
29 -58 37 -67 48 -56 7 8 181 219 387 469 206 250 439 532 516 625 l141 170
-22 21 c-29 28 -1315 1074 -1321 1074 -2 0 -11 -33 -20 -72z"/>
<path d="M6334 4053 c-478 -575 -1037 -1248 -1241 -1494 -205 -247 -373 -452
-373 -457 0 -18 299 -66 524 -83 161 -13 468 -7 621 11 339 39 687 133 983
263 52 23 95 46 96 51 0 6 -193 167 -431 360 -238 193 -432 353 -433 357 -1
11 291 344 300 342 6 -2 232 -180 503 -396 271 -216 498 -397 505 -401 13 -8
104 54 237 162 288 235 539 520 734 832 74 117 201 353 201 371 0 5 -78 73
-172 152 -421 350 -1164 963 -1174 969 -6 4 -381 -439 -880 -1039z"/>
<path d="M8951 3612 c-49 -106 -221 -376 -345 -541 -174 -231 -444 -508 -673
-692 -68 -54 -124 -101 -124 -104 0 -6 168 -140 1129 -906 l314 -249 35 43
c97 114 219 334 278 497 68 191 98 368 97 571 -2 285 -62 529 -200 804 -94
189 -209 343 -368 494 -121 115 -127 118 -143 83z"/>
<path d="M3405 9895 c-59 -22 -106 -65 -140 -126 -26 -47 -29 -65 -30 -134 0
-70 4 -86 30 -134 87 -157 301 -187 421 -59 57 60 69 94 69 193 0 67 -5 98
-18 122 -28 52 -77 103 -121 125 -53 27 -156 33 -211 13z m195 -100 c35 -18
50 -43 50 -85 0 -31 -37 -80 -60 -80 -6 0 0 -10 15 -22 16 -15 32 -46 44 -90
l18 -68 -43 0 c-47 0 -56 9 -69 70 -11 51 -32 70 -77 70 l-38 0 0 -70 0 -70
-40 0 -40 0 0 173 c0 96 3 177 7 180 14 14 203 7 233 -8z"/>
</g>
</g>
</svg>
